<svg width="400" height="400" viewBox="0 0 400 400" fill="none" xmlns="http://www.w3.org/2000/svg">
<rect x="3.5" y="3.5" width="393" height="393" rx="196.5" fill="black"/>
<rect x="3.5" y="3.5" width="393" height="393" rx="196.5" stroke="white" stroke-width="7"/>
<path d="M101.429 142.5C96.7738 142.5 92.8748 141.396 89.7314 139.188C86.5881 136.98 85.011 134.251 85 131V108C85 101.675 88.22 96.2623 94.66 91.762C101.1 87.2617 108.832 85.0077 117.857 85H150.714C155.369 85 159.274 86.104 162.428 88.312C165.582 90.52 167.154 93.2493 167.143 96.5C167.132 99.7507 165.555 102.484 162.411 104.699C159.268 106.915 155.369 108.015 150.714 108H117.857V131C117.857 134.258 116.28 136.991 113.126 139.199C109.971 141.407 106.072 142.508 101.429 142.5ZM117.857 315C108.821 315 101.089 312.75 94.66 308.249C88.2309 303.749 85.011 298.333 85 292V269C85 265.742 86.5771 263.012 89.7314 260.812C92.8857 258.612 96.7848 257.508 101.429 257.5C106.072 257.492 109.977 258.596 113.142 260.812C116.307 263.028 117.879 265.757 117.857 269V292H150.714C155.369 292 159.274 293.104 162.428 295.312C165.582 297.52 167.154 300.249 167.143 303.5C167.132 306.751 165.555 309.484 162.411 311.699C159.268 313.915 155.369 315.015 150.714 315H117.857ZM298.571 142.5C293.916 142.5 290.017 141.396 286.874 139.188C283.731 136.98 282.154 134.251 282.143 131V108H249.286C244.631 108 240.732 106.896 237.588 104.688C234.445 102.48 232.868 99.7507 232.857 96.5C232.846 93.2493 234.423 90.52 237.588 88.312C240.754 86.104 244.653 85 249.286 85H282.143C291.178 85 298.916 87.254 305.356 91.762C311.796 96.27 315.011 101.683 315 108V131C315 134.258 313.423 136.991 310.268 139.199C307.114 141.407 303.215 142.508 298.571 142.5ZM249.286 315C244.631 315 240.732 313.896 237.588 311.688C234.445 309.48 232.868 306.751 232.857 303.5C232.846 300.249 234.423 297.52 237.588 295.312C240.754 293.104 244.653 292 249.286 292H282.143V269C282.143 265.742 283.72 263.012 286.874 260.812C290.028 258.612 293.927 257.508 298.571 257.5C303.215 257.492 307.12 258.596 310.285 260.812C313.45 263.028 315.022 265.757 315 269V292C315 298.325 311.785 303.741 305.356 308.249C298.927 312.757 291.189 315.008 282.143 315H249.286Z" fill="white"/>
</svg>
