<svg width="400" height="400" viewBox="0 0 400 400" fill="none" xmlns="http://www.w3.org/2000/svg">
<rect x="3.5" y="3.5" width="393" height="393" rx="196.5" fill="black"/>
<rect x="3.5" y="3.5" width="393" height="393" rx="196.5" stroke="white" stroke-width="7"/>
<path d="M327.808 137.452L279.951 120.049L262.548 72.1916C261.462 69.2049 259.484 66.6247 256.881 64.8014C254.279 62.9781 251.178 62 248 62C244.822 62 241.721 62.9781 239.119 64.8014C236.516 66.6247 234.537 69.2049 233.452 72.1916L216.049 120.049L168.192 137.452C165.205 138.537 162.625 140.516 160.801 143.119C158.978 145.721 158 148.822 158 152C158 155.178 158.978 158.279 160.801 160.881C162.625 163.484 165.205 165.462 168.192 166.548L216.049 183.951L233.452 231.808C234.537 234.795 236.516 237.375 239.119 239.199C241.721 241.022 244.822 242 248 242C251.178 242 254.279 241.022 256.881 239.199C259.484 237.375 261.462 234.795 262.548 231.808L279.951 183.951L327.808 166.548C330.795 165.462 333.375 163.484 335.199 160.881C337.022 158.279 338 155.178 338 152C338 148.822 337.022 145.721 335.199 143.119C333.375 140.516 330.795 138.537 327.808 137.452ZM269.508 167.937C268.228 168.402 267.067 169.142 266.104 170.104C265.142 171.067 264.402 172.228 263.937 173.508L248 217.338L232.063 173.508C231.598 172.228 230.858 171.067 229.896 170.104C228.933 169.142 227.772 168.402 226.492 167.937L182.662 152L226.492 136.063C227.772 135.598 228.933 134.858 229.896 133.896C230.858 132.933 231.598 131.772 232.063 130.492L248 86.662L263.937 130.492C264.402 131.772 265.142 132.933 266.104 133.896C267.067 134.858 268.228 135.598 269.508 136.063L313.338 152L269.508 167.937Z" fill="white"/>
<path d="M151.942 200.205L123.493 189.087L113.148 158.511C112.503 156.603 111.327 154.955 109.779 153.79C108.232 152.625 106.389 152 104.5 152C102.611 152 100.768 152.625 99.2205 153.79C97.6734 154.955 96.4973 156.603 95.852 158.511L85.5067 189.087L57.0583 200.205C55.2829 200.899 53.7491 202.163 52.6653 203.826C51.5814 205.489 51 207.47 51 209.5C51 211.53 51.5814 213.511 52.6653 215.174C53.7491 216.837 55.2829 218.101 57.0583 218.795L85.5067 229.913L95.852 260.489C96.4973 262.397 97.6734 264.045 99.2205 265.21C100.768 266.375 102.611 267 104.5 267C106.389 267 108.232 266.375 109.779 265.21C111.327 264.045 112.503 262.397 113.148 260.489L123.493 229.913L151.942 218.795C153.717 218.101 155.251 216.837 156.335 215.174C157.419 213.511 158 211.53 158 209.5C158 207.47 157.419 205.489 156.335 203.826C155.251 202.163 153.717 200.899 151.942 200.205ZM117.285 219.682C116.525 219.979 115.834 220.452 115.262 221.066C114.69 221.681 114.25 222.424 113.974 223.241L104.5 251.244L95.0264 223.241C94.7501 222.424 94.3103 221.681 93.7382 221.066C93.166 220.452 92.4753 219.979 91.7148 219.682L65.6602 209.5L91.7148 199.318C92.4753 199.021 93.166 198.548 93.7382 197.934C94.3103 197.319 94.7501 196.576 95.0264 195.759L104.5 167.756L113.974 195.759C114.25 196.576 114.69 197.319 115.262 197.934C115.834 198.548 116.525 199.021 117.285 199.318L143.34 209.5L117.285 219.682Z" fill="white"/>
<path d="M241.942 290.205L213.493 279.087L203.148 248.511C202.503 246.603 201.327 244.955 199.779 243.79C198.232 242.625 196.389 242 194.5 242C192.611 242 190.768 242.625 189.221 243.79C187.673 244.955 186.497 246.603 185.852 248.511L175.507 279.087L147.058 290.205C145.283 290.899 143.749 292.163 142.665 293.826C141.581 295.489 141 297.47 141 299.5C141 301.53 141.581 303.511 142.665 305.174C143.749 306.837 145.283 308.101 147.058 308.795L175.507 319.913L185.852 350.489C186.497 352.397 187.673 354.045 189.221 355.21C190.768 356.375 192.611 357 194.5 357C196.389 357 198.232 356.375 199.779 355.21C201.327 354.045 202.503 352.397 203.148 350.489L213.493 319.913L241.942 308.795C243.717 308.101 245.251 306.837 246.335 305.174C247.419 303.511 248 301.53 248 299.5C248 297.47 247.419 295.489 246.335 293.826C245.251 292.163 243.717 290.899 241.942 290.205ZM207.285 309.682C206.525 309.979 205.834 310.452 205.262 311.066C204.69 311.681 204.25 312.424 203.974 313.241L194.5 341.244L185.026 313.241C184.75 312.424 184.31 311.681 183.738 311.066C183.166 310.452 182.475 309.979 181.715 309.682L155.66 299.5L181.715 289.318C182.475 289.021 183.166 288.548 183.738 287.934C184.31 287.319 184.75 286.576 185.026 285.759L194.5 257.756L203.974 285.759C204.25 286.576 204.69 287.319 205.262 287.934C205.834 288.548 206.525 289.021 207.285 289.318L233.34 299.5L207.285 309.682Z" fill="white"/>
</svg>
