<svg width="2245" height="750" viewBox="0 0 2245 750" fill="none" xmlns="http://www.w3.org/2000/svg">
<mask id="path-1-outside-1_253_7" maskUnits="userSpaceOnUse" x="126" y="273.778" width="807" height="228" fill="black">
<rect fill="white" x="126" y="273.778" width="807" height="228"/>
<path d="M272.695 349.868C271.487 345.393 269.712 341.452 267.368 338.043C265.024 334.562 262.148 331.615 258.739 329.2C255.33 326.785 251.423 324.974 247.02 323.767C242.616 322.489 237.787 321.849 232.531 321.849C221.949 321.849 212.787 324.406 205.045 329.52C197.375 334.633 191.445 342.091 187.254 351.892C183.064 361.622 180.969 373.447 180.969 387.368C180.969 401.359 182.993 413.291 187.041 423.163C191.089 433.035 196.949 440.564 204.619 445.748C212.29 450.933 221.594 453.525 232.531 453.525C242.19 453.525 250.358 451.963 257.034 448.838C263.781 445.642 268.895 441.132 272.375 435.308C275.855 429.484 277.595 422.631 277.595 414.747L287.396 415.919H234.342V377.46H328.412V406.331C328.412 425.862 324.257 442.588 315.947 456.508C307.709 470.429 296.345 481.118 281.857 488.575C267.439 496.033 250.855 499.761 232.105 499.761C211.295 499.761 193.007 495.251 177.24 486.231C161.473 477.212 149.186 464.356 140.379 447.666C131.572 430.905 127.169 411.018 127.169 388.007C127.169 370.109 129.832 354.236 135.159 340.386C140.486 326.466 147.908 314.676 157.425 305.017C167.013 295.358 178.092 288.043 190.663 283.071C203.305 278.099 216.906 275.614 231.466 275.614C244.108 275.614 255.862 277.425 266.729 281.047C277.666 284.669 287.325 289.783 295.706 296.388C304.158 302.993 311.011 310.841 316.267 319.932C321.523 329.023 324.79 339.001 326.068 349.868H272.695ZM405.623 499.548C395.182 499.548 385.914 497.808 377.817 494.328C369.792 490.777 363.435 485.45 358.748 478.348C354.131 471.175 351.823 462.19 351.823 451.395C351.823 442.304 353.421 434.633 356.617 428.383C359.813 422.133 364.216 417.055 369.827 413.149C375.438 409.243 381.901 406.295 389.216 404.307C396.532 402.247 404.344 400.862 412.654 400.152C421.958 399.3 429.451 398.412 435.132 397.489C440.814 396.494 444.934 395.109 447.49 393.334C450.118 391.487 451.432 388.895 451.432 385.557V385.024C451.432 379.555 449.55 375.329 445.786 372.346C442.022 369.364 436.944 367.872 430.551 367.872C423.662 367.872 418.123 369.364 413.932 372.346C409.742 375.329 407.078 379.449 405.942 384.704L357.895 383C359.316 373.057 362.973 364.179 368.868 356.366C374.834 348.483 383.002 342.304 393.371 337.829C403.811 333.284 416.347 331.011 430.978 331.011C441.418 331.011 451.042 332.254 459.848 334.74C468.655 337.155 476.326 340.706 482.86 345.393C489.394 350.01 494.436 355.692 497.988 362.439C501.61 369.186 503.421 376.892 503.421 385.557V496.778H454.415V473.98H453.137C450.225 479.52 446.496 484.207 441.951 488.043C437.476 491.878 432.185 494.754 426.077 496.672C420.04 498.589 413.222 499.548 405.623 499.548ZM421.709 465.457C427.32 465.457 432.363 464.321 436.837 462.048C441.382 459.775 445.005 456.65 447.703 452.673C450.402 448.625 451.752 443.937 451.752 438.611V423.057C450.26 423.838 448.449 424.548 446.319 425.187C444.259 425.827 441.986 426.43 439.5 426.998C437.015 427.567 434.458 428.064 431.83 428.49C429.202 428.916 426.681 429.307 424.266 429.662C419.365 430.443 415.175 431.65 411.695 433.284C408.286 434.918 405.658 437.048 403.811 439.676C402.036 442.233 401.148 445.287 401.148 448.838C401.148 454.236 403.066 458.355 406.901 461.196C410.807 464.037 415.743 465.457 421.709 465.457ZM678.137 383.106L630.303 384.385C629.806 380.976 628.456 377.957 626.255 375.329C624.053 372.631 621.176 370.535 617.625 369.044C614.145 367.481 610.097 366.7 605.48 366.7C599.444 366.7 594.294 367.908 590.033 370.322C585.843 372.737 583.783 376.004 583.854 380.123C583.783 383.32 585.061 386.089 587.689 388.433C590.388 390.777 595.182 392.659 602.071 394.079L633.605 400.045C649.941 403.17 662.086 408.355 670.04 415.599C678.066 422.844 682.114 432.432 682.185 444.364C682.114 455.585 678.776 465.351 672.171 473.66C665.637 481.97 656.688 488.433 645.324 493.05C633.961 497.595 620.963 499.868 606.333 499.868C582.966 499.868 564.536 495.074 551.042 485.486C537.618 475.827 529.948 462.9 528.03 446.707L579.486 445.429C580.623 451.395 583.57 455.94 588.328 459.065C593.087 462.19 599.159 463.753 606.546 463.753C613.222 463.753 618.655 462.51 622.846 460.024C627.036 457.538 629.167 454.236 629.238 450.116C629.167 446.423 627.533 443.476 624.337 441.274C621.141 439.001 616.134 437.226 609.316 435.947L580.765 430.514C564.358 427.531 552.142 422.027 544.117 414.001C536.091 405.905 532.114 395.606 532.185 383.106C532.114 372.169 535.026 362.829 540.921 355.088C546.816 347.275 555.196 341.31 566.063 337.19C576.929 333.071 589.749 331.011 604.522 331.011C626.681 331.011 644.152 335.663 656.936 344.967C669.721 354.2 676.787 366.913 678.137 383.106ZM800.198 333.142V371.494H696.967V333.142H800.198ZM718.593 293.937H770.688V445.322C770.688 448.518 771.185 451.111 772.18 453.099C773.245 455.017 774.772 456.402 776.761 457.254C778.749 458.035 781.129 458.426 783.898 458.426C785.887 458.426 787.982 458.248 790.184 457.893C792.457 457.467 794.161 457.112 795.298 456.828L803.181 494.435C800.695 495.145 797.18 496.033 792.634 497.098C788.16 498.163 782.798 498.838 776.548 499.122C764.332 499.69 753.856 498.27 745.12 494.861C736.455 491.381 729.815 485.983 725.198 478.668C720.653 471.352 718.451 462.155 718.593 451.075V293.937ZM826.778 496.778V333.142H877.382V362.971H879.087C882.07 352.176 886.935 344.15 893.682 338.895C900.429 333.568 908.277 330.905 917.226 330.905C919.641 330.905 922.126 331.082 924.683 331.437C927.24 331.721 929.619 332.183 931.821 332.822V378.099C929.335 377.247 926.068 376.572 922.02 376.075C918.043 375.578 914.491 375.329 911.366 375.329C905.188 375.329 899.612 376.714 894.641 379.484C889.74 382.183 885.869 385.983 883.028 390.883C880.259 395.713 878.874 401.395 878.874 407.929V496.778H826.778Z"/>
</mask>
<path d="M272.695 349.868C271.487 345.393 269.712 341.452 267.368 338.043C265.024 334.562 262.148 331.615 258.739 329.2C255.33 326.785 251.423 324.974 247.02 323.767C242.616 322.489 237.787 321.849 232.531 321.849C221.949 321.849 212.787 324.406 205.045 329.52C197.375 334.633 191.445 342.091 187.254 351.892C183.064 361.622 180.969 373.447 180.969 387.368C180.969 401.359 182.993 413.291 187.041 423.163C191.089 433.035 196.949 440.564 204.619 445.748C212.29 450.933 221.594 453.525 232.531 453.525C242.19 453.525 250.358 451.963 257.034 448.838C263.781 445.642 268.895 441.132 272.375 435.308C275.855 429.484 277.595 422.631 277.595 414.747L287.396 415.919H234.342V377.46H328.412V406.331C328.412 425.862 324.257 442.588 315.947 456.508C307.709 470.429 296.345 481.118 281.857 488.575C267.439 496.033 250.855 499.761 232.105 499.761C211.295 499.761 193.007 495.251 177.24 486.231C161.473 477.212 149.186 464.356 140.379 447.666C131.572 430.905 127.169 411.018 127.169 388.007C127.169 370.109 129.832 354.236 135.159 340.386C140.486 326.466 147.908 314.676 157.425 305.017C167.013 295.358 178.092 288.043 190.663 283.071C203.305 278.099 216.906 275.614 231.466 275.614C244.108 275.614 255.862 277.425 266.729 281.047C277.666 284.669 287.325 289.783 295.706 296.388C304.158 302.993 311.011 310.841 316.267 319.932C321.523 329.023 324.79 339.001 326.068 349.868H272.695ZM405.623 499.548C395.182 499.548 385.914 497.808 377.817 494.328C369.792 490.777 363.435 485.45 358.748 478.348C354.131 471.175 351.823 462.19 351.823 451.395C351.823 442.304 353.421 434.633 356.617 428.383C359.813 422.133 364.216 417.055 369.827 413.149C375.438 409.243 381.901 406.295 389.216 404.307C396.532 402.247 404.344 400.862 412.654 400.152C421.958 399.3 429.451 398.412 435.132 397.489C440.814 396.494 444.934 395.109 447.49 393.334C450.118 391.487 451.432 388.895 451.432 385.557V385.024C451.432 379.555 449.55 375.329 445.786 372.346C442.022 369.364 436.944 367.872 430.551 367.872C423.662 367.872 418.123 369.364 413.932 372.346C409.742 375.329 407.078 379.449 405.942 384.704L357.895 383C359.316 373.057 362.973 364.179 368.868 356.366C374.834 348.483 383.002 342.304 393.371 337.829C403.811 333.284 416.347 331.011 430.978 331.011C441.418 331.011 451.042 332.254 459.848 334.74C468.655 337.155 476.326 340.706 482.86 345.393C489.394 350.01 494.436 355.692 497.988 362.439C501.61 369.186 503.421 376.892 503.421 385.557V496.778H454.415V473.98H453.137C450.225 479.52 446.496 484.207 441.951 488.043C437.476 491.878 432.185 494.754 426.077 496.672C420.04 498.589 413.222 499.548 405.623 499.548ZM421.709 465.457C427.32 465.457 432.363 464.321 436.837 462.048C441.382 459.775 445.005 456.65 447.703 452.673C450.402 448.625 451.752 443.937 451.752 438.611V423.057C450.26 423.838 448.449 424.548 446.319 425.187C444.259 425.827 441.986 426.43 439.5 426.998C437.015 427.567 434.458 428.064 431.83 428.49C429.202 428.916 426.681 429.307 424.266 429.662C419.365 430.443 415.175 431.65 411.695 433.284C408.286 434.918 405.658 437.048 403.811 439.676C402.036 442.233 401.148 445.287 401.148 448.838C401.148 454.236 403.066 458.355 406.901 461.196C410.807 464.037 415.743 465.457 421.709 465.457ZM678.137 383.106L630.303 384.385C629.806 380.976 628.456 377.957 626.255 375.329C624.053 372.631 621.176 370.535 617.625 369.044C614.145 367.481 610.097 366.7 605.48 366.7C599.444 366.7 594.294 367.908 590.033 370.322C585.843 372.737 583.783 376.004 583.854 380.123C583.783 383.32 585.061 386.089 587.689 388.433C590.388 390.777 595.182 392.659 602.071 394.079L633.605 400.045C649.941 403.17 662.086 408.355 670.04 415.599C678.066 422.844 682.114 432.432 682.185 444.364C682.114 455.585 678.776 465.351 672.171 473.66C665.637 481.97 656.688 488.433 645.324 493.05C633.961 497.595 620.963 499.868 606.333 499.868C582.966 499.868 564.536 495.074 551.042 485.486C537.618 475.827 529.948 462.9 528.03 446.707L579.486 445.429C580.623 451.395 583.57 455.94 588.328 459.065C593.087 462.19 599.159 463.753 606.546 463.753C613.222 463.753 618.655 462.51 622.846 460.024C627.036 457.538 629.167 454.236 629.238 450.116C629.167 446.423 627.533 443.476 624.337 441.274C621.141 439.001 616.134 437.226 609.316 435.947L580.765 430.514C564.358 427.531 552.142 422.027 544.117 414.001C536.091 405.905 532.114 395.606 532.185 383.106C532.114 372.169 535.026 362.829 540.921 355.088C546.816 347.275 555.196 341.31 566.063 337.19C576.929 333.071 589.749 331.011 604.522 331.011C626.681 331.011 644.152 335.663 656.936 344.967C669.721 354.2 676.787 366.913 678.137 383.106ZM800.198 333.142V371.494H696.967V333.142H800.198ZM718.593 293.937H770.688V445.322C770.688 448.518 771.185 451.111 772.18 453.099C773.245 455.017 774.772 456.402 776.761 457.254C778.749 458.035 781.129 458.426 783.898 458.426C785.887 458.426 787.982 458.248 790.184 457.893C792.457 457.467 794.161 457.112 795.298 456.828L803.181 494.435C800.695 495.145 797.18 496.033 792.634 497.098C788.16 498.163 782.798 498.838 776.548 499.122C764.332 499.69 753.856 498.27 745.12 494.861C736.455 491.381 729.815 485.983 725.198 478.668C720.653 471.352 718.451 462.155 718.593 451.075V293.937ZM826.778 496.778V333.142H877.382V362.971H879.087C882.07 352.176 886.935 344.15 893.682 338.895C900.429 333.568 908.277 330.905 917.226 330.905C919.641 330.905 922.126 331.082 924.683 331.437C927.24 331.721 929.619 332.183 931.821 332.822V378.099C929.335 377.247 926.068 376.572 922.02 376.075C918.043 375.578 914.491 375.329 911.366 375.329C905.188 375.329 899.612 376.714 894.641 379.484C889.74 382.183 885.869 385.983 883.028 390.883C880.259 395.713 878.874 401.395 878.874 407.929V496.778H826.778Z" fill="white"/>
<path d="M272.695 349.868L271.729 350.128L271.929 350.868H272.695V349.868ZM267.368 338.043L266.538 338.601L266.544 338.609L267.368 338.043ZM247.02 323.767L246.741 324.727L246.748 324.729L246.755 324.731L247.02 323.767ZM205.045 329.52L204.494 328.685L204.491 328.688L205.045 329.52ZM187.254 351.892L188.173 352.287L188.174 352.285L187.254 351.892ZM187.041 423.163L187.966 422.784L187.966 422.784L187.041 423.163ZM204.619 445.748L205.179 444.92L205.179 444.92L204.619 445.748ZM257.034 448.838L257.458 449.744L257.462 449.742L257.034 448.838ZM272.375 435.308L271.517 434.795L271.517 434.795L272.375 435.308ZM277.595 414.747L277.714 413.754L276.595 413.62V414.747H277.595ZM287.396 415.919V416.919L287.515 414.926L287.396 415.919ZM234.342 415.919H233.342V416.919H234.342V415.919ZM234.342 377.46V376.46H233.342V377.46H234.342ZM328.412 377.46H329.412V376.46H328.412V377.46ZM315.947 456.508L315.089 455.996L315.087 455.999L315.947 456.508ZM281.857 488.575L281.399 487.686L281.397 487.687L281.857 488.575ZM177.24 486.231L177.737 485.363L177.737 485.363L177.24 486.231ZM140.379 447.666L139.494 448.131L139.495 448.133L140.379 447.666ZM135.159 340.386L136.092 340.745L136.093 340.744L135.159 340.386ZM157.425 305.017L156.715 304.312L156.712 304.315L157.425 305.017ZM190.663 283.071L190.297 282.14L190.296 282.141L190.663 283.071ZM266.729 281.047L266.412 281.995L266.414 281.996L266.729 281.047ZM295.706 296.388L295.087 297.173L295.09 297.176L295.706 296.388ZM316.267 319.932L315.401 320.432L315.401 320.432L316.267 319.932ZM326.068 349.868V350.868H327.193L327.061 349.751L326.068 349.868ZM273.66 349.607C272.427 345.037 270.607 340.989 268.192 337.476L266.544 338.609C268.816 341.914 270.548 345.75 271.729 350.128L273.66 349.607ZM268.197 337.484C265.786 333.904 262.825 330.869 259.317 328.384L258.161 330.016C261.471 332.361 264.262 335.221 266.538 338.601L268.197 337.484ZM259.317 328.384C255.804 325.896 251.79 324.038 247.284 322.803L246.755 324.731C251.057 325.911 254.855 327.675 258.161 330.016L259.317 328.384ZM247.299 322.807C242.793 321.498 237.868 320.849 232.531 320.849V322.849C237.706 322.849 242.44 323.479 246.741 324.727L247.299 322.807ZM232.531 320.849C221.781 320.849 212.421 323.449 204.494 328.685L205.597 330.354C213.152 325.363 222.116 322.849 232.531 322.849V320.849ZM204.491 328.688C196.635 333.925 190.589 341.548 186.335 351.499L188.174 352.285C192.3 342.634 198.115 335.342 205.6 330.352L204.491 328.688ZM186.336 351.496C182.078 361.384 179.969 373.352 179.969 387.368H181.969C181.969 373.543 184.05 361.86 188.173 352.287L186.336 351.496ZM179.969 387.368C179.969 401.451 182.006 413.519 186.116 423.543L187.966 422.784C183.98 413.063 181.969 401.268 181.969 387.368H179.969ZM186.116 423.543C190.227 433.569 196.202 441.266 204.059 446.577L205.179 444.92C197.696 439.862 191.952 432.502 187.966 422.784L186.116 423.543ZM204.059 446.577C211.923 451.892 221.431 454.525 232.531 454.525V452.525C221.756 452.525 212.656 449.974 205.179 444.92L204.059 446.577ZM232.531 454.525C242.293 454.525 250.615 452.947 257.458 449.744L256.61 447.932C250.101 450.979 242.087 452.525 232.531 452.525V454.525ZM257.462 449.742C264.37 446.47 269.642 441.832 273.233 435.821L271.517 434.795C268.148 440.432 263.193 444.814 256.606 447.934L257.462 449.742ZM273.233 435.821C276.82 429.819 278.595 422.782 278.595 414.747H276.595C276.595 422.48 274.89 429.15 271.517 434.795L273.233 435.821ZM277.476 415.74L287.278 416.912L287.515 414.926L277.714 413.754L277.476 415.74ZM287.396 414.919H234.342V416.919H287.396V414.919ZM235.342 415.919V377.46H233.342V415.919H235.342ZM234.342 378.46H328.412V376.46H234.342V378.46ZM327.412 377.46V406.331H329.412V377.46H327.412ZM327.412 406.331C327.412 425.719 323.289 442.259 315.089 455.996L316.806 457.021C325.226 442.917 329.412 426.006 329.412 406.331H327.412ZM315.087 455.999C306.945 469.756 295.721 480.314 281.399 487.686L282.314 489.464C296.969 481.921 308.473 471.101 316.808 457.018L315.087 455.999ZM281.397 487.687C267.142 495.06 250.72 498.761 232.105 498.761V500.761C250.99 500.761 267.736 497.005 282.316 489.463L281.397 487.687ZM232.105 498.761C211.444 498.761 193.332 494.285 177.737 485.363L176.743 487.099C192.683 496.218 211.147 500.761 232.105 500.761V498.761ZM177.737 485.363C162.141 476.442 149.986 463.729 141.264 447.199L139.495 448.133C148.387 464.984 160.805 477.982 176.743 487.099L177.737 485.363ZM141.265 447.201C132.548 430.611 128.169 410.891 128.169 388.007H126.169C126.169 411.146 130.597 431.199 139.494 448.131L141.265 447.201ZM128.169 388.007C128.169 370.207 130.818 354.459 136.092 340.745L134.226 340.027C128.847 354.012 126.169 370.011 126.169 388.007H128.169ZM136.093 340.744C141.375 326.939 148.726 315.27 158.137 305.719L156.712 304.315C147.089 314.082 139.596 325.992 134.225 340.029L136.093 340.744ZM158.134 305.721C167.626 296.16 178.589 288.921 191.031 284.001L190.296 282.141C177.595 287.164 166.4 294.556 156.715 304.312L158.134 305.721ZM191.029 284.002C203.547 279.079 217.022 276.614 231.466 276.614V274.614C216.79 274.614 203.064 277.12 190.297 282.14L191.029 284.002ZM231.466 276.614C244.012 276.614 255.658 278.411 266.412 281.995L267.045 280.098C256.066 276.439 244.204 274.614 231.466 274.614V276.614ZM266.414 281.996C277.25 285.585 286.805 290.645 295.087 297.173L296.325 295.602C287.846 288.92 278.082 283.753 267.043 280.097L266.414 281.996ZM295.09 297.176C303.443 303.704 310.211 311.455 315.401 320.432L317.133 319.431C311.812 310.227 304.872 302.282 296.322 295.6L295.09 297.176ZM315.401 320.432C320.586 329.4 323.812 339.248 325.075 349.985L327.061 349.751C325.768 338.755 322.459 328.645 317.133 319.431L315.401 320.432ZM326.068 348.868H272.695V350.868H326.068V348.868ZM377.817 494.328L377.412 495.243L377.422 495.247L377.817 494.328ZM358.748 478.348L357.907 478.889L357.913 478.899L358.748 478.348ZM356.617 428.383L355.726 427.928L355.726 427.928L356.617 428.383ZM369.827 413.149L370.398 413.97L370.398 413.97L369.827 413.149ZM389.216 404.307L389.479 405.272L389.487 405.269L389.216 404.307ZM412.654 400.152L412.739 401.148L412.745 401.148L412.654 400.152ZM435.132 397.489L435.293 398.476L435.305 398.474L435.132 397.489ZM447.49 393.334L448.061 394.155L448.065 394.152L447.49 393.334ZM445.786 372.346L446.407 371.563L446.407 371.563L445.786 372.346ZM413.932 372.346L413.352 371.532L413.352 371.532L413.932 372.346ZM405.942 384.704L405.907 385.704L406.743 385.733L406.92 384.916L405.942 384.704ZM357.895 383L356.905 382.858L356.748 383.96L357.86 383.999L357.895 383ZM368.868 356.366L368.071 355.763L368.07 355.764L368.868 356.366ZM393.371 337.829L393.767 338.748L393.77 338.746L393.371 337.829ZM459.848 334.74L459.577 335.702L459.584 335.704L459.848 334.74ZM482.86 345.393L482.277 346.206L482.283 346.21L482.86 345.393ZM497.988 362.439L497.103 362.905L497.107 362.912L497.988 362.439ZM503.421 496.778V497.778H504.421V496.778H503.421ZM454.415 496.778H453.415V497.778H454.415V496.778ZM454.415 473.98H455.415V472.98H454.415V473.98ZM453.137 473.98V472.98H452.533L452.252 473.515L453.137 473.98ZM441.951 488.043L441.306 487.278L441.3 487.283L441.951 488.043ZM426.077 496.672L425.778 495.718L425.774 495.719L426.077 496.672ZM436.837 462.048L436.39 461.154L436.384 461.157L436.837 462.048ZM447.703 452.673L448.531 453.235L448.536 453.228L447.703 452.673ZM451.752 423.057H452.752V421.404L451.288 422.171L451.752 423.057ZM446.319 425.187L446.031 424.23L446.022 424.232L446.319 425.187ZM431.83 428.49L431.99 429.477L431.99 429.477L431.83 428.49ZM424.266 429.662L424.12 428.672L424.109 428.674L424.266 429.662ZM411.695 433.284L411.27 432.379L411.263 432.382L411.695 433.284ZM403.811 439.676L402.993 439.101L402.99 439.106L403.811 439.676ZM406.901 461.196L406.306 462L406.313 462.005L406.901 461.196ZM405.623 498.548C395.293 498.548 386.163 496.827 378.212 493.409L377.422 495.247C385.664 498.789 395.071 500.548 405.623 500.548V498.548ZM378.222 493.414C370.366 489.937 364.161 484.734 359.582 477.797L357.913 478.899C362.709 486.166 369.218 491.616 377.412 495.243L378.222 493.414ZM359.588 477.807C355.1 470.833 352.823 462.049 352.823 451.395H350.823C350.823 462.332 353.162 471.517 357.907 478.889L359.588 477.807ZM352.823 451.395C352.823 442.417 354.401 434.912 357.507 428.839L355.726 427.928C352.44 434.354 350.823 442.191 350.823 451.395H352.823ZM357.507 428.839C360.631 422.731 364.926 417.78 370.398 413.97L369.256 412.328C363.506 416.331 358.995 421.536 355.726 427.928L357.507 428.839ZM370.398 413.97C375.906 410.136 382.262 407.234 389.479 405.272L388.954 403.342C381.54 405.357 374.97 408.35 369.256 412.328L370.398 413.97ZM389.487 405.269C396.736 403.228 404.486 401.854 412.739 401.148L412.569 399.156C404.202 399.871 396.327 401.266 388.945 403.344L389.487 405.269ZM412.745 401.148C422.06 400.294 429.578 399.404 435.293 398.476L434.972 396.501C429.323 397.419 421.856 398.305 412.563 399.156L412.745 401.148ZM435.305 398.474C441.028 397.472 445.322 396.057 448.061 394.155L446.92 392.512C444.545 394.162 440.601 395.516 434.96 396.504L435.305 398.474ZM448.065 394.152C450.972 392.109 452.432 389.205 452.432 385.557H450.432C450.432 388.584 449.265 390.865 446.915 392.516L448.065 394.152ZM452.432 385.557V385.024H450.432V385.557H452.432ZM452.432 385.024C452.432 379.298 450.446 374.763 446.407 371.563L445.165 373.13C448.654 375.896 450.432 379.813 450.432 385.024H452.432ZM446.407 371.563C442.415 368.4 437.094 366.872 430.551 366.872V368.872C436.793 368.872 441.628 370.328 445.165 373.13L446.407 371.563ZM430.551 366.872C423.524 366.872 417.761 368.393 413.352 371.532L414.512 373.161C418.484 370.334 423.801 368.872 430.551 368.872V366.872ZM413.352 371.532C408.949 374.666 406.151 379.006 404.965 384.493L406.92 384.916C408.006 379.892 410.535 375.993 414.512 373.161L413.352 371.532ZM405.978 383.705L357.931 382.001L357.86 383.999L405.907 385.704L405.978 383.705ZM358.885 383.141C360.282 373.361 363.876 364.643 369.667 356.969L368.07 355.764C362.071 363.715 358.349 372.753 356.905 382.858L358.885 383.141ZM369.666 356.97C375.513 349.243 383.534 343.163 393.767 338.748L392.975 336.911C382.47 341.444 374.155 347.723 368.071 355.763L369.666 356.97ZM393.77 338.746C404.054 334.269 416.447 332.011 430.978 332.011V330.011C416.247 330.011 403.569 332.299 392.972 336.913L393.77 338.746ZM430.978 332.011C441.339 332.011 450.87 333.245 459.577 335.702L460.12 333.778C451.213 331.264 441.497 330.011 430.978 330.011V332.011ZM459.584 335.704C468.292 338.092 475.851 341.596 482.277 346.206L483.443 344.581C476.8 339.816 469.019 336.217 460.113 333.776L459.584 335.704ZM482.283 346.21C488.694 350.74 493.629 356.304 497.103 362.905L498.872 361.973C495.244 355.079 490.093 349.28 483.437 344.577L482.283 346.21ZM497.107 362.912C500.641 369.495 502.421 377.035 502.421 385.557H504.421C504.421 376.749 502.579 368.877 498.869 361.966L497.107 362.912ZM502.421 385.557V496.778H504.421V385.557H502.421ZM503.421 495.778H454.415V497.778H503.421V495.778ZM455.415 496.778V473.98H453.415V496.778H455.415ZM454.415 472.98H453.137V474.98H454.415V472.98ZM452.252 473.515C449.396 478.946 445.747 483.531 441.306 487.278L442.596 488.807C447.245 484.884 451.053 480.093 454.022 474.445L452.252 473.515ZM441.3 487.283C436.937 491.023 431.768 493.837 425.778 495.718L426.377 497.626C432.602 495.671 438.016 492.732 442.601 488.802L441.3 487.283ZM425.774 495.719C419.853 497.6 413.139 498.548 405.623 498.548V500.548C413.305 500.548 420.228 499.579 426.38 497.625L425.774 495.719ZM421.709 466.457C427.459 466.457 432.659 465.292 437.29 462.94L436.384 461.157C432.066 463.35 427.181 464.457 421.709 464.457V466.457ZM437.284 462.943C441.974 460.598 445.73 457.362 448.531 453.235L446.876 452.112C444.279 455.939 440.791 458.953 436.39 461.154L437.284 462.943ZM448.536 453.228C451.354 449 452.752 444.115 452.752 438.611H450.752C450.752 443.76 449.45 448.25 446.871 452.119L448.536 453.228ZM452.752 438.611V423.057H450.752V438.611H452.752ZM451.288 422.171C449.867 422.915 448.119 423.603 446.031 424.23L446.606 426.145C448.779 425.493 450.653 424.761 452.216 423.943L451.288 422.171ZM446.022 424.232C443.991 424.863 441.743 425.46 439.278 426.024L439.723 427.973C442.229 427.4 444.527 426.79 446.615 426.142L446.022 424.232ZM439.278 426.024C436.813 426.587 434.278 427.08 431.67 427.503L431.99 429.477C434.638 429.048 437.216 428.546 439.723 427.973L439.278 426.024ZM431.67 427.503C429.046 427.928 426.53 428.318 424.12 428.672L424.411 430.651C426.832 430.295 429.358 429.904 431.99 429.477L431.67 427.503ZM424.109 428.674C419.141 429.466 414.856 430.696 411.27 432.379L412.12 434.189C415.495 432.605 419.59 431.42 424.423 430.649L424.109 428.674ZM411.263 432.382C407.727 434.077 404.955 436.31 402.993 439.101L404.63 440.251C406.362 437.786 408.845 435.758 412.127 434.186L411.263 432.382ZM402.99 439.106C401.082 441.853 400.148 445.113 400.148 448.838H402.148C402.148 445.461 402.989 442.613 404.633 440.246L402.99 439.106ZM400.148 448.838C400.148 454.505 402.18 458.943 406.306 461.999L407.496 460.392C403.952 457.767 402.148 453.966 402.148 448.838H400.148ZM406.313 462.005C410.427 464.997 415.582 466.457 421.709 466.457V464.457C415.904 464.457 411.188 463.077 407.489 460.387L406.313 462.005ZM678.137 383.106L678.163 384.106L679.221 384.078L679.133 383.023L678.137 383.106ZM630.303 384.385L629.313 384.529L629.442 385.408L630.33 385.384L630.303 384.385ZM626.255 375.329L625.48 375.962L625.488 375.972L626.255 375.329ZM617.625 369.044L617.216 369.956L617.227 369.961L617.238 369.966L617.625 369.044ZM590.033 370.322L589.54 369.452L589.534 369.456L590.033 370.322ZM583.854 380.123L584.854 380.146L584.854 380.126L584.854 380.106L583.854 380.123ZM587.689 388.433L587.024 389.18L587.034 389.188L587.689 388.433ZM602.071 394.079L601.869 395.059L601.877 395.061L601.885 395.062L602.071 394.079ZM633.605 400.045L633.793 399.063L633.791 399.063L633.605 400.045ZM670.04 415.599L669.367 416.339L669.37 416.342L670.04 415.599ZM682.185 444.364L683.185 444.37L683.185 444.358L682.185 444.364ZM672.171 473.66L671.388 473.038L671.385 473.042L672.171 473.66ZM645.324 493.05L645.696 493.978L645.701 493.976L645.324 493.05ZM551.042 485.486L550.457 486.297L550.462 486.301L551.042 485.486ZM528.03 446.707L528.005 445.708L526.908 445.735L527.037 446.825L528.03 446.707ZM579.486 445.429L580.468 445.242L580.31 444.408L579.461 444.429L579.486 445.429ZM588.328 459.065L588.877 458.229L588.877 458.229L588.328 459.065ZM622.846 460.024L622.335 459.164L622.335 459.164L622.846 460.024ZM629.238 450.116L630.237 450.134L630.238 450.115L630.237 450.097L629.238 450.116ZM624.337 441.274L623.757 442.089L623.764 442.093L623.77 442.098L624.337 441.274ZM609.316 435.947L609.129 436.93L609.131 436.93L609.316 435.947ZM580.765 430.514L580.952 429.532L580.943 429.53L580.765 430.514ZM544.117 414.001L543.407 414.705L543.41 414.708L544.117 414.001ZM532.185 383.106L533.185 383.112L533.185 383.1L532.185 383.106ZM540.921 355.088L541.716 355.694L541.719 355.69L540.921 355.088ZM566.063 337.19L565.708 336.255L565.708 336.255L566.063 337.19ZM656.936 344.967L656.348 345.776L656.351 345.778L656.936 344.967ZM678.11 382.107L630.276 383.385L630.33 385.384L678.163 384.106L678.11 382.107ZM631.292 384.241C630.769 380.649 629.343 377.458 627.021 374.687L625.488 375.972C627.57 378.457 628.843 381.303 629.313 384.529L631.292 384.241ZM627.029 374.697C624.714 371.859 621.698 369.67 618.013 368.122L617.238 369.966C620.655 371.401 623.392 373.403 625.48 375.962L627.029 374.697ZM618.035 368.132C614.402 366.501 610.209 365.7 605.48 365.7V367.7C609.985 367.7 613.889 368.462 617.216 369.956L618.035 368.132ZM605.48 365.7C599.311 365.7 593.983 366.935 589.54 369.452L590.526 371.192C594.606 368.88 599.577 367.7 605.48 367.7V365.7ZM589.534 369.456C585.094 372.014 582.776 375.588 582.854 380.141L584.854 380.106C584.79 376.421 586.591 373.46 590.532 371.189L589.534 369.456ZM582.854 380.101C582.776 383.622 584.202 386.663 587.024 389.179L588.355 387.687C585.921 385.516 584.79 383.017 584.854 380.146L582.854 380.101ZM587.034 389.188C589.936 391.709 594.946 393.631 601.869 395.059L602.273 393.1C595.419 391.687 590.84 389.845 588.345 387.678L587.034 389.188ZM601.885 395.062L633.42 401.028L633.791 399.063L602.257 393.097L601.885 395.062ZM633.418 401.028C649.663 404.135 661.604 409.269 669.367 416.339L670.713 414.86C662.567 407.441 650.219 402.205 633.793 399.063L633.418 401.028ZM669.37 416.342C677.164 423.377 681.115 432.686 681.185 444.369L683.185 444.358C683.113 432.177 678.967 422.31 670.71 414.857L669.37 416.342ZM681.185 444.357C681.115 455.369 677.846 464.914 671.388 473.038L672.954 474.283C679.706 465.787 683.113 455.802 683.185 444.37L681.185 444.357ZM671.385 473.042C664.974 481.195 656.177 487.562 644.948 492.123L645.701 493.976C657.199 489.305 666.299 482.745 672.957 474.279L671.385 473.042ZM644.953 492.121C633.728 496.611 620.861 498.868 606.333 498.868V500.868C621.066 500.868 634.193 498.579 645.696 493.978L644.953 492.121ZM606.333 498.868C583.091 498.868 564.889 494.098 551.621 484.671L550.462 486.301C564.183 496.05 582.841 500.868 606.333 500.868V498.868ZM551.626 484.674C538.426 475.176 530.907 462.5 529.023 446.59L527.037 446.825C528.988 463.301 536.81 476.477 550.457 486.297L551.626 484.674ZM528.055 447.707L579.511 446.429L579.461 444.429L528.005 445.708L528.055 447.707ZM578.504 445.616C579.687 451.828 582.778 456.617 587.78 459.901L588.877 458.229C584.362 455.264 581.558 450.961 580.468 445.242L578.504 445.616ZM587.78 459.901C592.743 463.161 599.022 464.753 606.546 464.753V462.753C599.297 462.753 593.431 461.22 588.877 458.229L587.78 459.901ZM606.546 464.753C613.338 464.753 618.964 463.489 623.356 460.884L622.335 459.164C618.346 461.53 613.106 462.753 606.546 462.753V464.753ZM623.356 460.884C627.781 458.259 630.159 454.668 630.237 450.134L628.238 450.099C628.174 453.803 626.291 456.817 622.335 459.164L623.356 460.884ZM630.237 450.097C630.16 446.063 628.35 442.824 624.904 440.451L623.77 442.098C626.716 444.127 628.173 446.783 628.238 450.136L630.237 450.097ZM624.917 440.459C621.544 438.061 616.367 436.252 609.5 434.964L609.131 436.93C615.9 438.199 620.738 439.942 623.757 442.089L624.917 440.459ZM609.503 434.965L580.952 429.532L580.578 431.496L609.129 436.93L609.503 434.965ZM580.943 429.53C564.648 426.567 552.653 421.123 544.824 413.294L543.41 414.708C551.632 422.931 564.068 428.495 580.586 431.498L580.943 429.53ZM544.827 413.297C537.007 405.409 533.115 395.375 533.185 383.112L531.185 383.101C531.113 395.838 535.175 406.401 543.407 414.705L544.827 413.297ZM533.185 383.1C533.115 372.355 535.972 363.238 541.716 355.694L540.125 354.482C534.08 362.421 531.113 371.983 531.185 383.113L533.185 383.1ZM541.719 355.69C547.481 348.055 555.694 342.19 566.417 338.125L565.708 336.255C554.699 340.429 546.151 346.496 540.123 354.486L541.719 355.69ZM566.417 338.125C577.144 334.059 589.839 332.011 604.522 332.011V330.011C589.659 330.011 576.714 332.083 565.708 336.255L566.417 338.125ZM604.522 332.011C626.552 332.011 643.791 336.637 656.348 345.776L657.525 344.159C644.513 334.689 626.81 330.011 604.522 330.011V332.011ZM656.351 345.778C668.89 354.834 675.814 367.277 677.14 383.189L679.133 383.023C677.76 366.549 670.551 353.566 657.522 344.157L656.351 345.778ZM800.198 333.142H801.198V332.142H800.198V333.142ZM800.198 371.494V372.494H801.198V371.494H800.198ZM696.967 371.494H695.967V372.494H696.967V371.494ZM696.967 333.142V332.142H695.967V333.142H696.967ZM718.593 293.937V292.937H717.593V293.937H718.593ZM770.688 293.937H771.688V292.937H770.688V293.937ZM772.18 453.099L771.285 453.547L771.295 453.566L771.306 453.585L772.18 453.099ZM776.761 457.254L776.367 458.173L776.381 458.179L776.395 458.185L776.761 457.254ZM790.184 457.893L790.343 458.881L790.356 458.879L790.368 458.876L790.184 457.893ZM795.298 456.828L796.276 456.623L796.063 455.606L795.055 455.858L795.298 456.828ZM803.181 494.435L803.456 495.396L804.351 495.14L804.16 494.229L803.181 494.435ZM792.634 497.098L792.406 496.124L792.403 496.125L792.634 497.098ZM776.548 499.122L776.502 498.123L776.501 498.123L776.548 499.122ZM745.12 494.861L744.747 495.789L744.756 495.792L745.12 494.861ZM725.198 478.668L724.349 479.195L724.352 479.201L725.198 478.668ZM718.593 451.075L719.593 451.088V451.075H718.593ZM799.198 333.142V371.494H801.198V333.142H799.198ZM800.198 370.494H696.967V372.494H800.198V370.494ZM697.967 371.494V333.142H695.967V371.494H697.967ZM696.967 334.142H800.198V332.142H696.967V334.142ZM718.593 294.937H770.688V292.937H718.593V294.937ZM769.688 293.937V445.322H771.688V293.937H769.688ZM769.688 445.322C769.688 448.61 770.198 451.372 771.285 453.547L773.074 452.652C772.173 450.85 771.688 448.426 771.688 445.322H769.688ZM771.306 453.585C772.477 455.693 774.171 457.232 776.367 458.173L777.155 456.335C775.373 455.571 774.013 454.341 773.054 452.614L771.306 453.585ZM776.395 458.185C778.529 459.023 781.039 459.426 783.898 459.426V457.426C781.218 457.426 778.97 457.048 777.126 456.323L776.395 458.185ZM783.898 459.426C785.946 459.426 788.095 459.243 790.343 458.881L790.025 456.906C787.869 457.254 785.828 457.426 783.898 457.426V459.426ZM790.368 458.876C792.646 458.449 794.374 458.09 795.54 457.798L795.055 455.858C793.949 456.135 792.268 456.485 790 456.911L790.368 458.876ZM794.319 457.033L802.202 494.64L804.16 494.229L796.276 456.623L794.319 457.033ZM802.906 493.473C800.444 494.177 796.946 495.06 792.406 496.124L792.862 498.072C797.413 497.005 800.947 496.113 803.456 495.396L802.906 493.473ZM792.403 496.125C788.007 497.172 782.71 497.841 776.502 498.123L776.593 500.121C782.885 499.835 788.313 499.155 792.866 498.071L792.403 496.125ZM776.501 498.123C764.384 498.687 754.056 497.274 745.484 493.929L744.756 495.792C753.656 499.265 764.279 500.694 776.594 500.121L776.501 498.123ZM745.493 493.933C737.007 490.524 730.539 485.257 726.044 478.134L724.352 479.201C729.09 486.709 735.904 492.237 744.747 495.789L745.493 493.933ZM726.048 478.14C721.628 471.027 719.453 462.031 719.593 451.088L717.593 451.062C717.449 462.279 719.677 471.677 724.349 479.195L726.048 478.14ZM719.593 451.075V293.937H717.593V451.075H719.593ZM826.778 496.778H825.778V497.778H826.778V496.778ZM826.778 333.142V332.142H825.778V333.142H826.778ZM877.382 333.142H878.382V332.142H877.382V333.142ZM877.382 362.971H876.382V363.971H877.382V362.971ZM879.087 362.971V363.971H879.848L880.051 363.238L879.087 362.971ZM893.682 338.895L894.296 339.684L894.301 339.68L893.682 338.895ZM924.683 331.437L924.546 332.428L924.559 332.43L924.573 332.431L924.683 331.437ZM931.821 332.822H932.821V332.071L932.1 331.862L931.821 332.822ZM931.821 378.099L931.497 379.045L932.821 379.499V378.099H931.821ZM922.02 376.075L921.896 377.067L921.898 377.068L922.02 376.075ZM894.641 379.484L895.123 380.36L895.127 380.358L894.641 379.484ZM883.028 390.883L882.163 390.382L882.161 390.386L883.028 390.883ZM878.874 496.778V497.778H879.874V496.778H878.874ZM827.778 496.778V333.142H825.778V496.778H827.778ZM826.778 334.142H877.382V332.142H826.778V334.142ZM876.382 333.142V362.971H878.382V333.142H876.382ZM877.382 363.971H879.087V361.971H877.382V363.971ZM880.051 363.238C882.994 352.586 887.765 344.772 894.296 339.684L893.067 338.106C886.105 343.529 881.145 351.767 878.123 362.705L880.051 363.238ZM894.301 339.68C900.864 334.498 908.492 331.905 917.226 331.905V329.905C908.062 329.905 899.993 332.638 893.062 338.11L894.301 339.68ZM917.226 331.905C919.592 331.905 922.031 332.079 924.546 332.428L924.821 330.447C922.222 330.086 919.69 329.905 917.226 329.905V331.905ZM924.573 332.431C927.079 332.71 929.402 333.161 931.542 333.783L932.1 331.862C929.837 331.205 927.401 330.733 924.794 330.444L924.573 332.431ZM930.821 332.822V378.099H932.821V332.822H930.821ZM932.145 377.153C929.568 376.27 926.226 375.584 922.142 375.083L921.898 377.068C925.911 377.561 929.102 378.224 931.497 379.045L932.145 377.153ZM922.144 375.083C918.136 374.582 914.543 374.329 911.366 374.329V376.329C914.44 376.329 917.949 376.574 921.896 377.067L922.144 375.083ZM911.366 374.329C905.032 374.329 899.287 375.751 894.154 378.611L895.127 380.358C899.938 377.678 905.343 376.329 911.366 376.329V374.329ZM894.158 378.608C889.096 381.396 885.094 385.326 882.163 390.382L883.894 391.385C886.644 386.64 890.384 382.97 895.123 380.36L894.158 378.608ZM882.161 390.386C879.29 395.391 877.874 401.251 877.874 407.929H879.874C879.874 401.539 881.227 396.035 883.896 391.381L882.161 390.386ZM877.874 407.929V496.778H879.874V407.929H877.874ZM878.874 495.778H826.778V497.778H878.874V495.778Z" fill="black" mask="url(#path-1-outside-1_253_7)"/>
<path d="M1211.68 452.608L1211.43 452.431L1211.15 452.584C1188.04 465.578 1162.2 474.03 1134.93 474.03C1085.99 474.03 1041.63 446.85 1009.47 414.915C993.403 398.952 980.4 381.818 971.418 366.333C962.424 350.828 957.5 337.043 957.5 327.765C957.5 318.487 962.424 304.702 971.418 289.197C980.4 273.713 993.403 256.578 1009.47 240.616C1041.63 208.681 1085.99 181.5 1134.93 181.5C1183.88 181.5 1228.25 208.681 1260.4 240.616C1276.47 256.578 1289.47 273.713 1298.45 289.197C1307.45 304.702 1312.37 318.487 1312.37 327.765C1312.37 335.601 1308.85 346.655 1302.32 359.259C1295.8 371.846 1286.3 385.926 1274.41 399.799L1274.29 399.939V400.124V495.915L1211.68 452.608ZM1045.47 327.771C1045.47 380.87 1085.5 423.986 1134.93 423.986C1184.38 423.986 1224.4 380.87 1224.4 327.771C1224.4 274.66 1184.38 231.557 1134.93 231.557C1085.5 231.557 1045.47 274.66 1045.47 327.771Z" fill="white" stroke="black"/>
<path d="M1134.8 270.34C1129.01 270.34 1123.46 271.357 1118.25 273.183C1121.57 276.165 1124.24 279.882 1126.07 284.074C1127.91 288.267 1128.86 292.835 1128.87 297.461C1128.87 315.073 1115.59 329.363 1099.21 329.363C1092.86 329.343 1086.69 327.121 1081.64 323.033C1081.51 324.607 1081.43 326.185 1081.42 327.765C1081.42 359.478 1105.31 385.196 1134.8 385.196C1164.28 385.196 1188.18 359.478 1188.18 327.765C1188.18 296.045 1164.28 270.34 1134.8 270.34Z" fill="#419BEE"/>
<mask id="path-5-outside-2_253_7" maskUnits="userSpaceOnUse" x="1341" y="277" width="793" height="225" fill="black">
<rect fill="white" x="1341" y="277" width="793" height="225"/>
<path d="M1342.38 321.645V278.818H1526.79V321.645H1460.63V497H1408.64V321.645H1342.38ZM1605.19 500.089C1588.01 500.089 1573.23 496.574 1560.88 489.543C1548.59 482.44 1539.11 472.568 1532.43 459.926C1525.83 447.213 1522.52 432.476 1522.52 415.714C1522.52 398.882 1525.83 384.145 1532.43 371.503C1539.11 358.79 1548.59 348.918 1560.88 341.886C1573.23 334.784 1588.01 331.233 1605.19 331.233C1622.38 331.233 1637.12 334.784 1649.41 341.886C1661.76 348.918 1671.25 358.79 1677.85 371.503C1684.53 384.145 1687.87 398.882 1687.87 415.714C1687.87 432.476 1684.53 447.213 1677.85 459.926C1671.25 472.568 1661.76 482.44 1649.41 489.543C1637.12 496.574 1622.38 500.089 1605.19 500.089ZM1605.51 460.778C1611.76 460.778 1617.06 458.861 1621.39 455.026C1625.72 451.19 1629.02 445.864 1631.3 439.045C1633.64 432.227 1634.81 424.344 1634.81 415.395C1634.81 406.304 1633.64 398.349 1631.3 391.531C1629.02 384.713 1625.72 379.386 1621.39 375.551C1617.06 371.716 1611.76 369.798 1605.51 369.798C1599.05 369.798 1593.58 371.716 1589.11 375.551C1584.7 379.386 1581.33 384.713 1578.99 391.531C1576.71 398.349 1575.58 406.304 1575.58 415.395C1575.58 424.344 1576.71 432.227 1578.99 439.045C1581.33 445.864 1584.7 451.19 1589.11 455.026C1593.58 458.861 1599.05 460.778 1605.51 460.778ZM1790.94 500.089C1773.75 500.089 1758.98 496.574 1746.62 489.543C1734.33 482.44 1724.85 472.568 1718.17 459.926C1711.57 447.213 1708.27 432.476 1708.27 415.714C1708.27 398.882 1711.57 384.145 1718.17 371.503C1724.85 358.79 1734.33 348.918 1746.62 341.886C1758.98 334.784 1773.75 331.233 1790.94 331.233C1808.12 331.233 1822.86 334.784 1835.15 341.886C1847.51 348.918 1856.99 358.79 1863.59 371.503C1870.27 384.145 1873.61 398.882 1873.61 415.714C1873.61 432.476 1870.27 447.213 1863.59 459.926C1856.99 472.568 1847.51 482.44 1835.15 489.543C1822.86 496.574 1808.12 500.089 1790.94 500.089ZM1791.26 460.778C1797.51 460.778 1802.8 458.861 1807.13 455.026C1811.46 451.19 1814.76 445.864 1817.04 439.045C1819.38 432.227 1820.55 424.344 1820.55 415.395C1820.55 406.304 1819.38 398.349 1817.04 391.531C1814.76 384.713 1811.46 379.386 1807.13 375.551C1802.8 371.716 1797.51 369.798 1791.26 369.798C1784.79 369.798 1779.32 371.716 1774.85 375.551C1770.45 379.386 1767.07 384.713 1764.73 391.531C1762.46 398.349 1761.32 406.304 1761.32 415.395C1761.32 424.344 1762.46 432.227 1764.73 439.045C1767.07 445.864 1770.45 451.19 1774.85 455.026C1779.32 458.861 1784.79 460.778 1791.26 460.778ZM1952.39 278.818V497H1900.29V278.818H1952.39ZM2128.41 383.328L2080.58 384.607C2080.08 381.197 2078.73 378.179 2076.53 375.551C2074.33 372.852 2071.45 370.757 2067.9 369.266C2064.42 367.703 2060.37 366.922 2055.75 366.922C2049.72 366.922 2044.57 368.129 2040.31 370.544C2036.12 372.959 2034.06 376.226 2034.13 380.345C2034.06 383.541 2035.33 386.311 2037.96 388.655C2040.66 390.999 2045.46 392.881 2052.34 394.301L2083.88 400.267C2100.21 403.392 2112.36 408.577 2120.31 415.821C2128.34 423.065 2132.39 432.653 2132.46 444.585C2132.39 455.807 2129.05 465.572 2122.44 473.882C2115.91 482.192 2106.96 488.655 2095.6 493.271C2084.23 497.817 2071.24 500.089 2056.61 500.089C2033.24 500.089 2014.81 495.295 2001.31 485.707C1987.89 476.048 1980.22 463.122 1978.3 446.929L2029.76 445.651C2030.9 451.616 2033.84 456.162 2038.6 459.287C2043.36 462.412 2049.43 463.974 2056.82 463.974C2063.5 463.974 2068.93 462.732 2073.12 460.246C2077.31 457.76 2079.44 454.457 2079.51 450.338C2079.44 446.645 2077.81 443.697 2074.61 441.496C2071.41 439.223 2066.41 437.447 2059.59 436.169L2031.04 430.736C2014.63 427.753 2002.42 422.249 1994.39 414.223C1986.36 406.126 1982.39 395.828 1982.46 383.328C1982.39 372.391 1985.3 363.051 1991.19 355.31C1997.09 347.497 2005.47 341.531 2016.34 337.412C2027.2 333.293 2040.02 331.233 2054.8 331.233C2076.95 331.233 2094.43 335.885 2107.21 345.189C2119.99 354.422 2127.06 367.135 2128.41 383.328Z"/>
</mask>
<path d="M1342.38 321.645V278.818H1526.79V321.645H1460.63V497H1408.64V321.645H1342.38ZM1605.19 500.089C1588.01 500.089 1573.23 496.574 1560.88 489.543C1548.59 482.44 1539.11 472.568 1532.43 459.926C1525.83 447.213 1522.52 432.476 1522.52 415.714C1522.52 398.882 1525.83 384.145 1532.43 371.503C1539.11 358.79 1548.59 348.918 1560.88 341.886C1573.23 334.784 1588.01 331.233 1605.19 331.233C1622.38 331.233 1637.12 334.784 1649.41 341.886C1661.76 348.918 1671.25 358.79 1677.85 371.503C1684.53 384.145 1687.87 398.882 1687.87 415.714C1687.87 432.476 1684.53 447.213 1677.85 459.926C1671.25 472.568 1661.76 482.44 1649.41 489.543C1637.12 496.574 1622.38 500.089 1605.19 500.089ZM1605.51 460.778C1611.76 460.778 1617.06 458.861 1621.39 455.026C1625.72 451.19 1629.02 445.864 1631.3 439.045C1633.64 432.227 1634.81 424.344 1634.81 415.395C1634.81 406.304 1633.64 398.349 1631.3 391.531C1629.02 384.713 1625.72 379.386 1621.39 375.551C1617.06 371.716 1611.76 369.798 1605.51 369.798C1599.05 369.798 1593.58 371.716 1589.11 375.551C1584.7 379.386 1581.33 384.713 1578.99 391.531C1576.71 398.349 1575.58 406.304 1575.58 415.395C1575.58 424.344 1576.71 432.227 1578.99 439.045C1581.33 445.864 1584.7 451.19 1589.11 455.026C1593.58 458.861 1599.05 460.778 1605.51 460.778ZM1790.94 500.089C1773.75 500.089 1758.98 496.574 1746.62 489.543C1734.33 482.44 1724.85 472.568 1718.17 459.926C1711.57 447.213 1708.27 432.476 1708.27 415.714C1708.27 398.882 1711.57 384.145 1718.17 371.503C1724.85 358.79 1734.33 348.918 1746.62 341.886C1758.98 334.784 1773.75 331.233 1790.94 331.233C1808.12 331.233 1822.86 334.784 1835.15 341.886C1847.51 348.918 1856.99 358.79 1863.59 371.503C1870.27 384.145 1873.61 398.882 1873.61 415.714C1873.61 432.476 1870.27 447.213 1863.59 459.926C1856.99 472.568 1847.51 482.44 1835.15 489.543C1822.86 496.574 1808.12 500.089 1790.94 500.089ZM1791.26 460.778C1797.51 460.778 1802.8 458.861 1807.13 455.026C1811.46 451.19 1814.76 445.864 1817.04 439.045C1819.38 432.227 1820.55 424.344 1820.55 415.395C1820.55 406.304 1819.38 398.349 1817.04 391.531C1814.76 384.713 1811.46 379.386 1807.13 375.551C1802.8 371.716 1797.51 369.798 1791.26 369.798C1784.79 369.798 1779.32 371.716 1774.85 375.551C1770.45 379.386 1767.07 384.713 1764.73 391.531C1762.46 398.349 1761.32 406.304 1761.32 415.395C1761.32 424.344 1762.46 432.227 1764.73 439.045C1767.07 445.864 1770.45 451.19 1774.85 455.026C1779.32 458.861 1784.79 460.778 1791.26 460.778ZM1952.39 278.818V497H1900.29V278.818H1952.39ZM2128.41 383.328L2080.58 384.607C2080.08 381.197 2078.73 378.179 2076.53 375.551C2074.33 372.852 2071.45 370.757 2067.9 369.266C2064.42 367.703 2060.37 366.922 2055.75 366.922C2049.72 366.922 2044.57 368.129 2040.31 370.544C2036.12 372.959 2034.06 376.226 2034.13 380.345C2034.06 383.541 2035.33 386.311 2037.96 388.655C2040.66 390.999 2045.46 392.881 2052.34 394.301L2083.88 400.267C2100.21 403.392 2112.36 408.577 2120.31 415.821C2128.34 423.065 2132.39 432.653 2132.46 444.585C2132.39 455.807 2129.05 465.572 2122.44 473.882C2115.91 482.192 2106.96 488.655 2095.6 493.271C2084.23 497.817 2071.24 500.089 2056.61 500.089C2033.24 500.089 2014.81 495.295 2001.31 485.707C1987.89 476.048 1980.22 463.122 1978.3 446.929L2029.76 445.651C2030.9 451.616 2033.84 456.162 2038.6 459.287C2043.36 462.412 2049.43 463.974 2056.82 463.974C2063.5 463.974 2068.93 462.732 2073.12 460.246C2077.31 457.76 2079.44 454.457 2079.51 450.338C2079.44 446.645 2077.81 443.697 2074.61 441.496C2071.41 439.223 2066.41 437.447 2059.59 436.169L2031.04 430.736C2014.63 427.753 2002.42 422.249 1994.39 414.223C1986.36 406.126 1982.39 395.828 1982.46 383.328C1982.39 372.391 1985.3 363.051 1991.19 355.31C1997.09 347.497 2005.47 341.531 2016.34 337.412C2027.2 333.293 2040.02 331.233 2054.8 331.233C2076.95 331.233 2094.43 335.885 2107.21 345.189C2119.99 354.422 2127.06 367.135 2128.41 383.328Z" fill="white"/>
<path d="M1342.38 321.645H1341.38V322.645H1342.38V321.645ZM1342.38 278.818V277.818H1341.38V278.818H1342.38ZM1526.79 278.818H1527.79V277.818H1526.79V278.818ZM1526.79 321.645V322.645H1527.79V321.645H1526.79ZM1460.63 321.645V320.645H1459.63V321.645H1460.63ZM1460.63 497V498H1461.63V497H1460.63ZM1408.64 497H1407.64V498H1408.64V497ZM1408.64 321.645H1409.64V320.645H1408.64V321.645ZM1343.38 321.645V278.818H1341.38V321.645H1343.38ZM1342.38 279.818H1526.79V277.818H1342.38V279.818ZM1525.79 278.818V321.645H1527.79V278.818H1525.79ZM1526.79 320.645H1460.63V322.645H1526.79V320.645ZM1459.63 321.645V497H1461.63V321.645H1459.63ZM1460.63 496H1408.64V498H1460.63V496ZM1409.64 497V321.645H1407.64V497H1409.64ZM1408.64 320.645H1342.38V322.645H1408.64V320.645ZM1560.88 489.543L1560.38 490.408L1560.38 490.412L1560.88 489.543ZM1532.43 459.926L1531.54 460.387L1531.55 460.393L1532.43 459.926ZM1532.43 371.503L1531.55 371.038L1531.55 371.04L1532.43 371.503ZM1560.88 341.886L1561.37 342.754L1561.37 342.753L1560.88 341.886ZM1649.41 341.886L1648.91 342.752L1648.91 342.756L1649.41 341.886ZM1677.85 371.503L1676.96 371.964L1676.97 371.97L1677.85 371.503ZM1677.85 459.926L1676.97 459.461L1676.96 459.463L1677.85 459.926ZM1649.41 489.543L1649.9 490.411L1649.9 490.41L1649.41 489.543ZM1621.39 455.026L1620.72 454.277L1620.72 454.277L1621.39 455.026ZM1631.3 439.045L1630.35 438.72L1630.35 438.729L1631.3 439.045ZM1631.3 391.531L1630.35 391.847L1630.35 391.856L1631.3 391.531ZM1621.39 375.551L1622.05 374.802L1622.05 374.802L1621.39 375.551ZM1589.11 375.551L1588.46 374.792L1588.45 374.797L1589.11 375.551ZM1578.99 391.531L1578.04 391.206L1578.04 391.215L1578.99 391.531ZM1578.99 439.045L1578.04 439.362L1578.04 439.371L1578.99 439.045ZM1589.11 455.026L1588.45 455.78L1588.46 455.785L1589.11 455.026ZM1605.19 499.089C1588.14 499.089 1573.55 495.603 1561.37 488.673L1560.38 490.412C1572.92 497.545 1587.87 501.089 1605.19 501.089V499.089ZM1561.38 488.677C1549.25 481.669 1539.91 471.936 1533.32 459.459L1531.55 460.393C1538.31 473.2 1547.92 483.211 1560.38 490.408L1561.38 488.677ZM1533.32 459.465C1526.8 446.917 1523.52 432.343 1523.52 415.714H1521.52C1521.52 432.609 1524.85 447.509 1531.54 460.387L1533.32 459.465ZM1523.52 415.714C1523.52 399.014 1526.8 384.441 1533.32 371.966L1531.55 371.04C1524.85 383.848 1521.52 398.75 1521.52 415.714H1523.52ZM1533.32 371.968C1539.91 359.421 1549.25 349.69 1561.37 342.754L1560.38 341.018C1547.93 348.146 1538.31 358.159 1531.55 371.038L1533.32 371.968ZM1561.37 342.753C1573.55 335.755 1588.15 332.233 1605.19 332.233V330.233C1587.87 330.233 1572.92 333.814 1560.38 341.019L1561.37 342.753ZM1605.19 332.233C1622.24 332.233 1636.8 335.755 1648.91 342.752L1649.91 341.021C1637.44 333.814 1622.52 330.233 1605.19 330.233V332.233ZM1648.91 342.756C1661.1 349.691 1670.45 359.42 1676.96 371.964L1678.74 371.042C1672.04 358.159 1662.43 348.145 1649.9 341.017L1648.91 342.756ZM1676.97 371.97C1683.55 384.444 1686.87 399.016 1686.87 415.714H1688.87C1688.87 398.748 1685.5 383.845 1678.74 371.036L1676.97 371.97ZM1686.87 415.714C1686.87 432.341 1683.55 446.914 1676.97 459.461L1678.74 460.391C1685.5 447.512 1688.87 432.611 1688.87 415.714H1686.87ZM1676.96 459.463C1670.45 471.936 1661.1 481.668 1648.91 488.676L1649.9 490.41C1662.43 483.212 1672.04 473.2 1678.74 460.389L1676.96 459.463ZM1648.91 488.675C1636.8 495.603 1622.25 499.089 1605.19 499.089V501.089C1622.52 501.089 1637.44 497.545 1649.9 490.411L1648.91 488.675ZM1605.51 461.778C1611.99 461.778 1617.52 459.785 1622.05 455.774L1620.72 454.277C1616.59 457.937 1611.54 459.778 1605.51 459.778V461.778ZM1622.05 455.774C1626.54 451.797 1629.93 446.307 1632.24 439.362L1630.35 438.729C1628.12 445.421 1624.9 450.583 1620.72 454.277L1622.05 455.774ZM1632.24 439.371C1634.63 432.426 1635.81 424.429 1635.81 415.395H1633.81C1633.81 424.259 1632.65 432.029 1630.35 438.72L1632.24 439.371ZM1635.81 415.395C1635.81 406.221 1634.63 398.152 1632.24 391.206L1630.35 391.856C1632.65 398.547 1633.81 406.387 1633.81 415.395H1635.81ZM1632.24 391.215C1629.93 384.27 1626.54 378.779 1622.05 374.802L1620.72 376.3C1624.9 379.994 1628.12 385.156 1630.35 391.847L1632.24 391.215ZM1622.05 374.802C1617.52 370.792 1611.99 368.798 1605.51 368.798V370.798C1611.54 370.798 1616.59 372.64 1620.72 376.3L1622.05 374.802ZM1605.51 368.798C1598.84 368.798 1593.13 370.786 1588.46 374.792L1589.76 376.31C1594.03 372.646 1599.27 370.798 1605.51 370.798V368.798ZM1588.45 374.797C1583.89 378.772 1580.43 384.261 1578.04 391.206L1579.93 391.856C1582.23 385.165 1585.52 380.001 1589.76 376.305L1588.45 374.797ZM1578.04 391.215C1575.72 398.158 1574.58 406.224 1574.58 415.395H1576.58C1576.58 406.384 1577.7 398.541 1579.94 391.847L1578.04 391.215ZM1574.58 415.395C1574.58 424.426 1575.72 432.42 1578.04 439.362L1579.94 438.729C1577.7 432.034 1576.58 424.262 1576.58 415.395H1574.58ZM1578.04 439.371C1580.43 446.316 1583.89 451.805 1588.45 455.78L1589.76 454.271C1585.52 450.576 1582.23 445.411 1579.93 438.72L1578.04 439.371ZM1588.46 455.785C1593.13 459.791 1598.84 461.778 1605.51 461.778V459.778C1599.27 459.778 1594.03 457.931 1589.76 454.266L1588.46 455.785ZM1746.62 489.543L1746.12 490.408L1746.12 490.412L1746.62 489.543ZM1718.17 459.926L1717.29 460.387L1717.29 460.393L1718.17 459.926ZM1718.17 371.503L1717.29 371.038L1717.29 371.04L1718.17 371.503ZM1746.62 341.886L1747.12 342.754L1747.12 342.753L1746.62 341.886ZM1835.15 341.886L1834.65 342.752L1834.65 342.756L1835.15 341.886ZM1863.59 371.503L1862.71 371.964L1862.71 371.97L1863.59 371.503ZM1863.59 459.926L1862.71 459.461L1862.71 459.463L1863.59 459.926ZM1835.15 489.543L1835.65 490.411L1835.65 490.41L1835.15 489.543ZM1807.13 455.026L1806.47 454.277L1806.47 454.277L1807.13 455.026ZM1817.04 439.045L1816.09 438.72L1816.09 438.729L1817.04 439.045ZM1817.04 391.531L1816.09 391.847L1816.09 391.856L1817.04 391.531ZM1807.13 375.551L1807.79 374.802L1807.79 374.802L1807.13 375.551ZM1774.85 375.551L1774.2 374.792L1774.19 374.797L1774.85 375.551ZM1764.73 391.531L1763.78 391.206L1763.78 391.215L1764.73 391.531ZM1764.73 439.045L1763.78 439.362L1763.78 439.371L1764.73 439.045ZM1774.85 455.026L1774.19 455.78L1774.2 455.785L1774.85 455.026ZM1790.94 499.089C1773.89 499.089 1759.29 495.603 1747.11 488.673L1746.12 490.412C1758.66 497.545 1773.61 501.089 1790.94 501.089V499.089ZM1747.12 488.677C1735 481.669 1725.65 471.936 1719.06 459.459L1717.29 460.393C1724.05 473.2 1733.67 483.211 1746.12 490.408L1747.12 488.677ZM1719.06 459.465C1712.54 446.917 1709.27 432.343 1709.27 415.714H1707.27C1707.27 432.609 1710.6 447.509 1717.29 460.387L1719.06 459.465ZM1709.27 415.714C1709.27 399.014 1712.54 384.441 1719.06 371.966L1717.29 371.04C1710.6 383.848 1707.27 398.75 1707.27 415.714H1709.27ZM1719.06 371.968C1725.65 359.421 1735 349.69 1747.12 342.754L1746.12 341.018C1733.67 348.146 1724.05 358.159 1717.29 371.038L1719.06 371.968ZM1747.12 342.753C1759.29 335.755 1773.89 332.233 1790.94 332.233V330.233C1773.61 330.233 1758.66 333.814 1746.12 341.019L1747.12 342.753ZM1790.94 332.233C1807.99 332.233 1822.54 335.755 1834.65 342.752L1835.65 341.021C1823.18 333.814 1808.26 330.233 1790.94 330.233V332.233ZM1834.65 342.756C1846.84 349.691 1856.19 359.42 1862.71 371.964L1864.48 371.042C1857.79 358.159 1848.17 348.145 1835.64 341.017L1834.65 342.756ZM1862.71 371.97C1869.3 384.444 1872.61 399.016 1872.61 415.714H1874.61C1874.61 398.748 1871.24 383.845 1864.48 371.036L1862.71 371.97ZM1872.61 415.714C1872.61 432.341 1869.3 446.914 1862.71 459.461L1864.48 460.391C1871.24 447.512 1874.61 432.611 1874.61 415.714H1872.61ZM1862.71 459.463C1856.19 471.936 1846.84 481.668 1834.65 488.676L1835.65 490.41C1848.17 483.212 1857.79 473.2 1864.48 460.389L1862.71 459.463ZM1834.65 488.675C1822.55 495.603 1807.99 499.089 1790.94 499.089V501.089C1808.26 501.089 1823.18 497.545 1835.65 490.411L1834.65 488.675ZM1791.26 461.778C1797.73 461.778 1803.26 459.785 1807.79 455.774L1806.47 454.277C1802.33 457.937 1797.28 459.778 1791.26 459.778V461.778ZM1807.79 455.774C1812.29 451.797 1815.67 446.307 1817.99 439.362L1816.09 438.729C1813.86 445.421 1810.64 450.583 1806.47 454.277L1807.79 455.774ZM1817.98 439.371C1820.37 432.426 1821.55 424.429 1821.55 415.395H1819.55C1819.55 424.259 1818.39 432.029 1816.09 438.72L1817.98 439.371ZM1821.55 415.395C1821.55 406.221 1820.37 398.152 1817.98 391.206L1816.09 391.856C1818.39 398.547 1819.55 406.387 1819.55 415.395H1821.55ZM1817.99 391.215C1815.67 384.27 1812.29 378.779 1807.79 374.802L1806.47 376.3C1810.64 379.994 1813.86 385.156 1816.09 391.847L1817.99 391.215ZM1807.79 374.802C1803.26 370.792 1797.73 368.798 1791.26 368.798V370.798C1797.28 370.798 1802.33 372.64 1806.47 376.3L1807.79 374.802ZM1791.26 368.798C1784.58 368.798 1778.87 370.786 1774.2 374.792L1775.5 376.31C1779.78 372.646 1785.01 370.798 1791.26 370.798V368.798ZM1774.19 374.797C1769.63 378.772 1766.17 384.261 1763.78 391.206L1765.68 391.856C1767.98 385.165 1771.26 380.001 1775.51 376.305L1774.19 374.797ZM1763.78 391.215C1761.47 398.158 1760.32 406.224 1760.32 415.395H1762.32C1762.32 406.384 1763.45 398.541 1765.68 391.847L1763.78 391.215ZM1760.32 415.395C1760.32 424.426 1761.47 432.42 1763.78 439.362L1765.68 438.729C1763.45 432.034 1762.32 424.262 1762.32 415.395H1760.32ZM1763.78 439.371C1766.17 446.316 1769.63 451.805 1774.19 455.78L1775.51 454.271C1771.26 450.576 1767.98 445.411 1765.68 438.72L1763.78 439.371ZM1774.2 455.785C1778.87 459.791 1784.58 461.778 1791.26 461.778V459.778C1785.01 459.778 1779.78 457.931 1775.5 454.266L1774.2 455.785ZM1952.39 278.818H1953.39V277.818H1952.39V278.818ZM1952.39 497V498H1953.39V497H1952.39ZM1900.29 497H1899.29V498H1900.29V497ZM1900.29 278.818V277.818H1899.29V278.818H1900.29ZM1951.39 278.818V497H1953.39V278.818H1951.39ZM1952.39 496H1900.29V498H1952.39V496ZM1901.29 497V278.818H1899.29V497H1901.29ZM1900.29 279.818H1952.39V277.818H1900.29V279.818ZM2128.41 383.328L2128.44 384.328L2129.49 384.3L2129.41 383.245L2128.41 383.328ZM2080.58 384.607L2079.59 384.751L2079.72 385.63L2080.6 385.606L2080.58 384.607ZM2076.53 375.551L2075.75 376.183L2075.76 376.193L2076.53 375.551ZM2067.9 369.266L2067.49 370.178L2067.5 370.183L2067.51 370.188L2067.9 369.266ZM2040.31 370.544L2039.81 369.674L2039.81 369.678L2040.31 370.544ZM2034.13 380.345L2035.13 380.367L2035.13 380.348L2035.13 380.328L2034.13 380.345ZM2037.96 388.655L2037.3 389.401L2037.31 389.41L2037.96 388.655ZM2052.34 394.301L2052.14 395.281L2052.15 395.282L2052.16 395.284L2052.34 394.301ZM2083.88 400.267L2084.07 399.285L2084.06 399.284L2083.88 400.267ZM2120.31 415.821L2119.64 416.56L2119.64 416.563L2120.31 415.821ZM2132.46 444.585L2133.46 444.592L2133.46 444.579L2132.46 444.585ZM2122.44 473.882L2121.66 473.26L2121.66 473.264L2122.44 473.882ZM2095.6 493.271L2095.97 494.2L2095.97 494.198L2095.6 493.271ZM2001.31 485.707L2000.73 486.519L2000.74 486.523L2001.31 485.707ZM1978.3 446.929L1978.28 445.929L1977.18 445.957L1977.31 447.047L1978.3 446.929ZM2029.76 445.651L2030.74 445.463L2030.58 444.63L2029.73 444.651L2029.76 445.651ZM2038.6 459.287L2039.15 458.451L2039.15 458.451L2038.6 459.287ZM2073.12 460.246L2072.61 459.386L2072.61 459.386L2073.12 460.246ZM2079.51 450.338L2080.51 450.355L2080.51 450.337L2080.51 450.319L2079.51 450.338ZM2074.61 441.496L2074.03 442.311L2074.04 442.315L2074.04 442.319L2074.61 441.496ZM2059.59 436.169L2059.4 437.151L2059.4 437.152L2059.59 436.169ZM2031.04 430.736L2031.22 429.753L2031.22 429.752L2031.04 430.736ZM1994.39 414.223L1993.68 414.927L1993.68 414.93L1994.39 414.223ZM1982.46 383.328L1983.46 383.334L1983.46 383.322L1982.46 383.328ZM1991.19 355.31L1991.99 355.915L1991.99 355.912L1991.19 355.31ZM2016.34 337.412L2015.98 336.477L2015.98 336.477L2016.34 337.412ZM2107.21 345.189L2106.62 345.997L2106.62 346L2107.21 345.189ZM2128.38 382.328L2080.55 383.607L2080.6 385.606L2128.44 384.328L2128.38 382.328ZM2081.57 384.462C2081.04 380.871 2079.62 377.68 2077.29 374.909L2075.76 376.193C2077.84 378.678 2079.12 381.524 2079.59 384.751L2081.57 384.462ZM2077.3 374.919C2074.99 372.08 2071.97 369.892 2068.29 368.344L2067.51 370.188C2070.93 371.623 2073.67 373.624 2075.75 376.183L2077.3 374.919ZM2068.31 368.353C2064.68 366.722 2060.48 365.922 2055.75 365.922V367.922C2060.26 367.922 2064.16 368.684 2067.49 370.178L2068.31 368.353ZM2055.75 365.922C2049.58 365.922 2044.26 367.156 2039.81 369.674L2040.8 371.414C2044.88 369.102 2049.85 367.922 2055.75 367.922V365.922ZM2039.81 369.678C2035.37 372.236 2033.05 375.809 2033.13 380.362L2035.13 380.328C2035.06 376.642 2036.86 373.681 2040.81 371.41L2039.81 369.678ZM2033.13 380.323C2033.05 383.844 2034.48 386.885 2037.3 389.401L2038.63 387.909C2036.19 385.737 2035.06 383.239 2035.13 380.367L2033.13 380.323ZM2037.31 389.41C2040.21 391.93 2045.22 393.853 2052.14 395.281L2052.55 393.322C2045.69 391.908 2041.11 390.067 2038.62 387.9L2037.31 389.41ZM2052.16 395.284L2083.69 401.25L2084.06 399.284L2052.53 393.319L2052.16 395.284ZM2083.69 401.249C2099.94 404.357 2111.88 409.49 2119.64 416.56L2120.99 415.082C2112.84 407.663 2100.49 402.427 2084.07 399.285L2083.69 401.249ZM2119.64 416.563C2127.44 423.599 2131.39 432.908 2131.46 444.591L2133.46 444.579C2133.39 432.399 2129.24 422.532 2120.98 415.079L2119.64 416.563ZM2131.46 444.579C2131.39 455.59 2128.12 465.136 2121.66 473.26L2123.23 474.504C2129.98 466.009 2133.39 456.023 2133.46 444.592L2131.46 444.579ZM2121.66 473.264C2115.25 481.416 2106.45 487.783 2095.22 492.345L2095.97 494.198C2107.47 489.526 2116.57 482.967 2123.23 474.5L2121.66 473.264ZM2095.23 492.343C2084 496.833 2071.13 499.089 2056.61 499.089V501.089C2071.34 501.089 2084.47 498.801 2095.97 494.2L2095.23 492.343ZM2056.61 499.089C2033.36 499.089 2015.16 494.32 2001.89 484.892L2000.74 486.523C2014.46 496.271 2033.11 501.089 2056.61 501.089V499.089ZM2001.9 484.896C1988.7 475.398 1981.18 462.722 1979.3 446.811L1977.31 447.047C1979.26 463.523 1987.08 476.699 2000.73 486.519L2001.9 484.896ZM1978.33 447.929L2029.78 446.65L2029.73 444.651L1978.28 445.929L1978.33 447.929ZM2028.78 445.838C2029.96 452.05 2033.05 456.838 2038.05 460.123L2039.15 458.451C2034.63 455.485 2031.83 451.183 2030.74 445.463L2028.78 445.838ZM2038.05 460.123C2043.02 463.383 2049.3 464.974 2056.82 464.974V462.974C2049.57 462.974 2043.7 461.441 2039.15 458.451L2038.05 460.123ZM2056.82 464.974C2063.61 464.974 2069.24 463.711 2073.63 461.106L2072.61 459.386C2068.62 461.752 2063.38 462.974 2056.82 462.974V464.974ZM2073.63 461.106C2078.05 458.481 2080.43 454.89 2080.51 450.355L2078.51 450.321C2078.45 454.025 2076.56 457.039 2072.61 459.386L2073.63 461.106ZM2080.51 450.319C2080.43 446.285 2078.62 443.046 2075.18 440.672L2074.04 442.319C2076.99 444.349 2078.45 447.005 2078.51 450.357L2080.51 450.319ZM2075.19 440.681C2071.82 438.283 2066.64 436.474 2059.77 435.186L2059.4 437.152C2066.17 438.421 2071.01 440.163 2074.03 442.311L2075.19 440.681ZM2059.78 435.187L2031.22 429.753L2030.85 431.718L2059.4 437.151L2059.78 435.187ZM2031.22 429.752C2014.92 426.789 2002.93 421.345 1995.1 413.516L1993.68 414.93C2001.91 423.152 2014.34 428.717 2030.86 431.72L2031.22 429.752ZM1995.1 413.519C1987.28 405.63 1983.39 395.596 1983.46 383.334L1981.46 383.322C1981.39 396.06 1985.45 406.623 1993.68 414.927L1995.1 413.519ZM1983.46 383.322C1983.39 372.576 1986.25 363.459 1991.99 355.915L1990.4 354.704C1984.35 362.643 1981.39 372.205 1981.46 383.335L1983.46 383.322ZM1991.99 355.912C1997.75 348.276 2005.97 342.412 2016.69 338.347L2015.98 336.477C2004.97 340.65 1996.42 346.718 1990.4 354.707L1991.99 355.912ZM2016.69 338.347C2027.42 334.28 2040.11 332.233 2054.8 332.233V330.233C2039.93 330.233 2026.99 332.305 2015.98 336.477L2016.69 338.347ZM2054.8 332.233C2076.83 332.233 2094.06 336.859 2106.62 345.997L2107.8 344.38C2094.79 334.911 2077.08 330.233 2054.8 330.233V332.233ZM2106.62 346C2119.16 355.056 2126.09 367.499 2127.41 383.411L2129.41 383.245C2128.03 366.771 2120.82 353.788 2107.8 344.378L2106.62 346Z" fill="black" mask="url(#path-5-outside-2_253_7)"/>
</svg>
