<svg width="400" height="400" viewBox="0 0 400 400" fill="none" xmlns="http://www.w3.org/2000/svg">
<rect x="3.5" y="3.5" width="393" height="393" rx="196.5" fill="black"/>
<rect x="3.5" y="3.5" width="393" height="393" rx="196.5" stroke="white" stroke-width="7"/>
<path d="M126.554 274.989C115.948 274.989 106.502 273.166 98.2159 269.52C89.9773 265.827 83.4669 260.76 78.6847 254.321C73.9498 247.834 71.5114 240.353 71.3693 231.878H102.335C102.525 235.429 103.685 238.554 105.815 241.253C107.993 243.904 110.882 245.964 114.48 247.432C118.079 248.9 122.127 249.634 126.625 249.634C131.312 249.634 135.455 248.805 139.054 247.148C142.652 245.491 145.47 243.194 147.506 240.259C149.542 237.323 150.56 233.937 150.56 230.102C150.56 226.22 149.471 222.787 147.293 219.804C145.162 216.774 142.084 214.406 138.06 212.702C134.082 210.997 129.348 210.145 123.855 210.145H110.29V187.56H123.855C128.495 187.56 132.591 186.755 136.142 185.145C139.741 183.535 142.534 181.31 144.523 178.469C146.511 175.58 147.506 172.219 147.506 168.384C147.506 164.738 146.63 161.542 144.878 158.795C143.173 156.002 140.759 153.824 137.634 152.261C134.556 150.699 130.957 149.918 126.838 149.918C122.671 149.918 118.86 150.675 115.403 152.19C111.947 153.658 109.177 155.765 107.094 158.511C105.01 161.258 103.898 164.477 103.756 168.17H74.2812C74.4233 159.79 76.8144 152.403 81.4545 146.011C86.0947 139.619 92.3447 134.624 100.205 131.026C108.112 127.38 117.037 125.557 126.98 125.557C137.018 125.557 145.801 127.38 153.33 131.026C160.858 134.671 166.705 139.596 170.872 145.798C175.086 151.954 177.17 158.866 177.122 166.537C177.17 174.681 174.636 181.475 169.523 186.92C164.456 192.366 157.851 195.822 149.707 197.29V198.426C160.408 199.799 168.552 203.516 174.139 209.577C179.774 215.59 182.567 223.118 182.52 232.162C182.567 240.448 180.176 247.811 175.347 254.25C170.564 260.689 163.959 265.756 155.531 269.449C147.103 273.142 137.444 274.989 126.554 274.989ZM257.04 273H205.478V127.545H257.467C272.097 127.545 284.692 130.457 295.251 136.281C305.809 142.058 313.93 150.367 319.612 161.21C325.341 172.053 328.205 185.027 328.205 200.131C328.205 215.282 325.341 228.303 319.612 239.193C313.93 250.083 305.762 258.44 295.109 264.264C284.503 270.088 271.813 273 257.04 273ZM236.231 246.651H255.762C264.853 246.651 272.5 245.041 278.702 241.821C284.952 238.554 289.64 233.511 292.765 226.693C295.937 219.828 297.523 210.973 297.523 200.131C297.523 189.383 295.937 180.599 292.765 173.781C289.64 166.963 284.976 161.944 278.773 158.724C272.571 155.505 264.924 153.895 255.833 153.895H236.231V246.651Z" fill="white"/>
</svg>
