<svg width="400" height="400" viewBox="0 0 400 400" fill="none" xmlns="http://www.w3.org/2000/svg">
<rect x="3.5" y="3.5" width="393" height="393" rx="196.5" fill="black"/>
<rect x="3.5" y="3.5" width="393" height="393" rx="196.5" stroke="white" stroke-width="7"/>
<path d="M137.273 315H105.909C100.159 315 95.2385 312.954 91.1473 308.863C87.0561 304.772 85.007 299.848 85 294.091V262.727H105.909V294.091H137.273V315ZM262.727 315V294.091H294.091V262.727H315V294.091C315 299.841 312.954 304.765 308.863 308.863C304.772 312.961 299.848 315.007 294.091 315H262.727ZM200 267.955C179.091 267.955 160.144 261.769 143.159 249.398C126.173 237.027 113.757 220.561 105.909 200C113.75 179.439 126.167 162.973 143.159 150.602C160.151 138.231 179.098 132.045 200 132.045C220.902 132.045 239.853 138.231 256.852 150.602C273.851 162.973 286.264 179.439 294.091 200C286.25 220.561 273.837 237.027 256.852 249.398C239.867 261.769 220.916 267.955 200 267.955ZM200 247.045C215.333 247.045 229.36 242.864 242.08 234.5C254.799 226.136 264.557 214.636 271.352 200C264.557 185.364 254.799 173.864 242.08 165.5C229.36 157.136 215.333 152.955 200 152.955C184.667 152.955 170.64 157.136 157.92 165.5C145.201 173.864 135.443 185.364 128.648 200C135.443 214.636 145.201 226.136 157.92 234.5C170.64 242.864 184.667 247.045 200 247.045ZM200 236.591C210.106 236.591 218.731 233.019 225.875 225.875C233.019 218.731 236.591 210.106 236.591 200C236.591 189.894 233.019 181.269 225.875 174.125C218.731 166.981 210.106 163.409 200 163.409C189.894 163.409 181.269 166.981 174.125 174.125C166.981 181.269 163.409 189.894 163.409 200C163.409 210.106 166.981 218.731 174.125 225.875C181.269 233.019 189.894 236.591 200 236.591ZM200 215.682C195.644 215.682 191.94 214.159 188.887 211.113C185.834 208.067 184.311 204.363 184.318 200C184.325 195.637 185.852 191.936 188.897 188.897C191.943 185.858 195.644 184.332 200 184.318C204.356 184.304 208.06 185.831 211.113 188.897C214.166 191.964 215.689 195.665 215.682 200C215.675 204.335 214.152 208.04 211.113 211.113C208.074 214.187 204.37 215.71 200 215.682ZM85 137.273V105.909C85 100.159 87.0491 95.2385 91.1473 91.1473C95.2455 87.0561 100.166 85.007 105.909 85H137.273V105.909H105.909V137.273H85ZM294.091 137.273V105.909H262.727V85H294.091C299.841 85 304.765 87.0491 308.863 91.1473C312.961 95.2455 315.007 100.166 315 105.909V137.273H294.091Z" fill="white"/>
</svg>
